<?xml version="1.0" encoding="UTF-8"?>
<svg width="1802px" height="1802px" viewBox="0 0 1802 1802" version="1.1" xmlns="http://www.w3.org/2000/svg" xmlns:xlink="http://www.w3.org/1999/xlink">
    <!-- Generator: Sketch 43.2 (39069) - http://www.bohemiancoding.com/sketch -->
    <title>Combined Shape</title>
    <desc>Created with Sketch.</desc>
    <defs></defs>
    <g id="Page-1" stroke="none" stroke-width="1" fill="none" fill-rule="evenodd">
        <g id="logo-square" fill="#FFFFFF">
            <path d="M0,0 L1802,0 L1802,1802 L0,1802 L0,0 Z M135,135 L135,1666 L1666,1666 L1666,135 L135,135 Z M297.610855,314.133485 C301.040306,313.474901 304.344241,313.022131 307.522758,312.775162 C310.701274,312.528193 313.796099,312.40471 316.807326,312.40471 C326.42652,312.40471 334.916378,313.845341 342.277153,316.726646 C349.637928,319.607951 355.827578,323.538815 360.846288,328.519356 C365.864998,333.499897 369.649886,339.344742 372.201063,346.054066 C374.752241,352.76339 376.027811,359.945964 376.027811,367.602002 C376.027811,377.233793 374.2922,386.02164 370.820925,393.965809 C367.34965,401.909978 362.519214,408.763265 356.329471,414.525875 C350.139729,420.288484 342.758153,424.75444 334.184523,427.923875 C325.610893,431.09331 316.221863,432.678004 306.017152,432.678004 C300.078345,432.678004 294.41147,432.060591 289.016356,430.825746 C283.621243,429.590901 278.560786,427.923885 273.834834,425.824649 C269.108881,423.725413 264.738487,421.296921 260.723518,418.5391 C256.70855,415.78128 253.07004,412.838277 249.807878,409.710003 L261.852723,393.904067 C263.1074,392.257608 264.571169,391.0022 266.244072,390.137809 C267.916976,389.273418 269.71532,388.841228 271.639159,388.841228 C274.148514,388.841228 276.511454,389.520383 278.728052,390.878713 C280.944649,392.237042 283.370322,393.718834 286.005145,395.324132 C288.639968,396.92943 291.713882,398.390642 295.226979,399.707809 C298.740076,401.024977 303.08956,401.683552 308.275561,401.683552 C313.461561,401.683552 317.894689,400.839753 321.575076,399.152132 C325.255464,397.464511 328.245734,395.159502 330.545976,392.237035 C332.846218,389.314569 334.519097,385.898216 335.564661,381.987874 C336.610226,378.077531 337.133,373.899702 337.133,369.45426 C337.133,360.728023 334.623683,354.080541 329.604973,349.511614 C324.586262,344.942688 317.476529,342.65826 308.275561,342.65826 C300.078334,342.65826 292.048518,344.181212 284.185872,347.227163 L260.096183,340.806001 L275.654107,250.786257 L369.252586,250.786257 L369.252586,266.592193 C369.252586,269.226529 368.834366,271.61386 367.997914,273.754258 C367.161462,275.894655 365.844071,277.767476 364.0457,279.372774 C362.247328,280.978072 359.884388,282.212899 356.956807,283.07729 C354.029226,283.941682 350.516181,284.373871 346.417568,284.373871 L302.755007,284.373871 L297.610855,314.133485 Z M453.691964,319.937227 C459.547126,317.796829 466.071351,316.726646 473.264836,316.726646 C479.872804,316.726646 486.39703,317.796829 492.837708,319.937227 C499.278386,322.077625 505.049817,325.370495 510.152172,329.815937 C515.254528,334.261378 519.37399,339.879838 522.510684,346.671485 C525.647378,353.463133 527.215702,361.468924 527.215702,370.689099 C527.215702,379.086044 525.626467,387.050674 522.447951,394.583229 C519.269434,402.115783 514.773574,408.701524 508.960234,414.340648 C503.146895,419.979774 496.141717,424.445729 487.94449,427.738649 C479.747264,431.031569 470.671899,432.678004 460.718123,432.678004 C450.513412,432.678004 441.354403,431.09331 433.240822,427.923875 C425.12724,424.75444 418.247528,420.329645 412.601479,414.649358 C406.95543,408.969071 402.647768,402.177527 399.678365,394.274519 C396.708961,386.371511 395.224282,377.686566 395.224282,368.219422 C395.224282,350.519978 402.166726,332.532673 416.051825,314.256968 L457.205044,259.553612 C459.128882,257.166245 461.910042,255.108201 465.548608,253.379418 C469.187172,251.650636 473.348457,250.786257 478.032587,250.786257 L512.661515,250.786257 L458.459715,314.503936 L453.691964,319.937227 Z M459.96532,402.424455 C463.980289,402.424455 467.723354,401.683559 471.194628,400.201745 C474.665903,398.719931 477.656173,396.682467 480.165528,394.089293 C482.674883,391.496119 484.661426,388.450214 486.125217,384.951486 C487.589007,381.452759 488.320891,377.645378 488.320891,373.529228 C488.320891,368.91914 487.630829,364.803052 486.250684,361.180841 C484.870539,357.558629 482.925817,354.512724 480.416462,352.043034 C477.907107,349.573344 474.875015,347.679944 471.320096,346.362776 C467.765176,345.045608 463.813001,344.387034 459.463452,344.387034 C455.532129,344.387034 451.93544,345.066188 448.673279,346.424518 C445.411117,347.782847 442.588135,349.737989 440.204247,352.290002 C437.82036,354.842015 435.959283,357.88792 434.62096,361.427809 C433.282638,364.967697 432.613486,368.960303 432.613486,373.405744 C432.613486,377.851186 433.157172,381.843791 434.244559,385.38368 C435.331946,388.923569 437.004824,391.969474 439.263244,394.521487 C441.521664,397.0735 444.365557,399.028641 447.795009,400.386971 C451.224461,401.7453 455.281191,402.424455 459.96532,402.424455 Z M981.890939,1116.8637 C1007.05141,1094.99871 1034.95502,1078.73193 1065.60261,1068.06287 C1096.2502,1057.39381 1129.10553,1052.05936 1164.16959,1052.05936 C1189.33006,1052.05936 1212.01428,1056.07666 1232.22296,1064.11138 C1252.43163,1072.14611 1269.56191,1083.34187 1283.6143,1097.699 C1297.66668,1112.05613 1308.44002,1129.1132 1315.93463,1148.87072 C1323.42923,1168.62824 1327.17648,1190.22946 1327.17648,1213.67505 L1327.17648,1469.73122 L1270.16422,1469.73122 C1258.38698,1469.73122 1249.48726,1468.15064 1243.46481,1464.98944 C1237.44236,1461.82823 1232.42373,1455.24249 1228.40875,1445.23202 L1219.57587,1422.70856 C1209.13695,1431.40187 1199.09968,1439.04132 1189.46376,1445.62716 C1179.82784,1452.213 1169.85748,1457.81088 1159.5524,1462.42097 C1149.24731,1467.03106 1138.27323,1470.45564 1126.62982,1472.69483 C1114.98641,1474.93401 1102.07179,1476.05359 1087.88557,1476.05359 C1068.88139,1476.05359 1051.61728,1473.61687 1036.09274,1468.74334 C1020.5682,1463.86982 1007.38592,1456.69137 996.545503,1447.20776 C985.705085,1437.72415 977.340695,1425.93567 971.452075,1411.84198 C965.563454,1397.74828 962.619189,1381.4815 962.619189,1363.04115 C962.619189,1348.28887 966.366435,1333.33924 973.861043,1318.19181 C981.355652,1303.04438 994.337186,1289.21432 1012.80604,1276.70122 C1031.2749,1264.18813 1056.16732,1253.7168 1087.48407,1245.28693 C1118.80083,1236.85705 1158.28076,1232.11532 1205.92505,1231.06158 L1205.92505,1213.67505 C1205.92505,1189.7026 1200.90641,1172.3821 1190.86899,1161.71304 C1180.83157,1151.04398 1166.57865,1145.70953 1148.10979,1145.70953 C1133.38824,1145.70953 1121.34352,1147.29011 1111.97526,1150.45131 C1102.607,1153.61251 1094.24261,1157.16881 1086.88183,1161.12032 C1079.52106,1165.07182 1072.36114,1168.62812 1065.40186,1171.78932 C1058.44259,1174.95052 1050.14511,1176.53111 1040.50919,1176.53111 C1031.94392,1176.53111 1024.71708,1174.42367 1018.82846,1170.20873 C1012.93984,1165.99379 1008.12196,1160.98863 1004.37465,1155.19309 L981.890939,1116.8637 Z M1205.92505,1302.97859 C1181.03224,1304.03233 1160.55621,1306.13976 1144.49634,1309.30097 C1128.43647,1312.46217 1115.72259,1316.41361 1106.35433,1321.15542 C1096.98607,1325.89722 1090.49531,1331.29753 1086.88183,1337.3565 C1083.26836,1343.41548 1081.46165,1350.00122 1081.46165,1357.11392 C1081.46165,1371.0759 1085.34273,1380.88866 1093.10501,1386.55248 C1100.86728,1392.2163 1112.24285,1395.04817 1127.23206,1395.04817 C1143.29193,1395.04817 1157.34412,1392.28216 1169.38902,1386.75005 C1181.43392,1381.21795 1193.61248,1372.26134 1205.92505,1359.87996 L1205.92505,1302.97859 Z M689.201219,894 C729.618567,894 764.012944,897.688014 792.385386,905.064153 C820.757832,912.440298 843.910464,922.845766 861.843991,936.28088 C879.777514,949.715994 892.825967,966.048631 900.989737,985.27928 C909.153502,1004.50993 913.235327,1025.97945 913.235327,1049.68847 C913.235327,1062.59671 911.361705,1075.04376 907.6144,1087.02999 C903.867096,1099.01622 897.978562,1110.21198 889.948626,1120.61761 C881.918689,1131.02323 871.613763,1140.57256 859.033528,1149.26587 C846.453293,1157.95917 831.330475,1165.46692 813.664613,1171.78932 C852.208308,1181.0095 880.714155,1195.89327 899.18301,1216.44109 C917.651861,1236.98891 926.88615,1263.59531 926.88615,1296.26107 C926.88615,1320.76039 922.068262,1343.54705 912.432338,1364.62174 C902.796413,1385.69643 888.677323,1404.07064 870.074634,1419.74494 C851.47195,1435.41924 828.520057,1447.66872 801.218275,1456.49374 C773.916489,1465.31877 742.734039,1469.73122 707.669983,1469.73122 L474,1469.73122 L474,894 L689.201219,894 Z M609.705248,993.972547 L609.705248,1136.22597 L680.368334,1136.22597 C695.357551,1136.22597 708.874404,1135.17225 720.919311,1133.06478 C732.964213,1130.95731 743.20223,1127.2693 751.633666,1122.00063 C760.065097,1116.73196 766.48895,1109.48764 770.905415,1100.26747 C775.32188,1091.04729 777.530079,1079.45638 777.530079,1065.49441 C777.530079,1051.79586 775.790285,1040.40253 772.310647,1031.31407 C768.831009,1022.22561 763.477798,1014.91544 756.250856,1009.38333 C749.023913,1003.85123 739.856539,999.899781 728.748459,997.528881 C717.640379,995.157981 704.458098,993.972547 689.201219,993.972547 L609.705248,993.972547 Z M705.261014,1368.96838 C723.194537,1368.96838 737.848951,1366.72922 749.224697,1362.25085 C760.600439,1357.77248 769.500152,1351.97703 775.9241,1344.86432 C782.348048,1337.75162 786.76445,1329.71701 789.173427,1320.76027 C791.58241,1311.80353 792.78688,1302.71521 792.78688,1293.49503 C792.78688,1282.95769 791.381667,1273.47422 788.571185,1265.04435 C785.760708,1256.61447 780.942821,1249.50187 774.117373,1243.70633 C767.291926,1237.91079 758.258384,1233.43249 747.016476,1230.27129 C735.774563,1227.11008 721.588554,1225.52951 704.458025,1225.52951 L609.705248,1225.52951 L609.705248,1368.96838 L705.261014,1368.96838 Z" id="Combined-Shape"></path>
        </g>
    </g>
</svg>