<?xml version="1.0" encoding="UTF-8"?>
<svg width="45px" height="46px" viewBox="0 0 45 46" version="1.1" xmlns="http://www.w3.org/2000/svg" xmlns:xlink="http://www.w3.org/1999/xlink">
    <!-- Generator: Sketch 43.2 (39069) - http://www.bohemiancoding.com/sketch -->
    <title>Combined Shape</title>
    <desc>Created with Sketch.</desc>
    <defs></defs>
    <g id="Page-1" stroke="none" stroke-width="1" fill="none" fill-rule="evenodd">
        <g id="Artboard" transform="translate(-413.000000, -11.000000)" fill="#7969AF">
            <path d="M416.96023,14.8285426 C422.133467,9.65593105 448.994901,9.79216166 454.031891,14.8285426 C459.339817,20.1358278 459.305561,46.622692 454.031891,51.895725 C448.50026,57.4266879 422.488747,57.4235741 416.96023,51.895725 C411.624016,46.5601557 411.736128,20.0520136 416.96023,14.8285426 Z M441.999099,47.765884 C443.574209,47.765884 444.93707,47.0956244 445.49562,46.0343801 L445.707868,46.0343801 L445.707868,47.5759772 L449.55069,47.5759772 L449.55069,39.0971932 C449.55069,36.4161548 447.595766,34.8522158 444.166271,34.8522158 C440.803802,34.8522158 438.603117,36.3491289 438.424381,38.7620634 L441.976757,38.7620634 C442.23369,38.1029748 442.903949,37.756674 443.942851,37.756674 C445.037609,37.756674 445.663184,38.2593687 445.663184,39.0971932 L445.663184,40.0690696 L442.948633,40.2254635 C439.742558,40.4153704 437.977541,41.7335476 437.977541,44.0012593 C437.977541,46.2801419 439.608506,47.765884 441.999099,47.765884 Z M443.440157,45.0066487 C442.445938,45.0066487 441.78685,44.515125 441.78685,43.7219845 C441.78685,42.9735279 442.401254,42.5155172 443.574209,42.4261492 L445.663184,42.2920973 L445.663184,43.1075798 C445.663184,44.1799952 444.691308,45.0066487 443.440157,45.0066487 Z M430.431315,47.5759772 C433.883152,47.5759772 436.061495,45.7551052 436.061495,42.9288439 C436.061495,40.8733812 434.43053,39.2312451 432.319213,39.1195352 L432.319213,38.9072863 C434.028375,38.6726955 435.32421,37.2092953 435.32421,35.4777914 C435.32421,32.9754889 433.425141,31.4562338 430.207895,31.4562338 L422.689816,31.4562338 L422.689816,47.5759772 L430.431315,47.5759772 Z M426.789571,34.349521 L429.113137,34.349521 C430.509512,34.349521 431.324994,35.0421226 431.324994,36.192735 C431.324994,37.3321763 430.453657,38.0247779 428.956744,38.0247779 L426.789571,38.0247779 L426.789571,34.349521 Z M426.789571,44.6826899 L426.789571,40.5159094 L429.247189,40.5159094 C430.94518,40.5159094 431.894715,41.2531949 431.894715,42.5713721 C431.894715,43.9342333 430.967522,44.6826899 429.269531,44.6826899 L426.789571,44.6826899 Z M427.834479,25.1800727 C429.217164,25.1800727 430.194862,24.3005536 430.194862,23.0569546 C430.194862,21.9360792 429.368524,21.1056495 428.251739,21.1056495 C427.568578,21.1056495 427.036775,21.4124585 426.774965,21.9647147 L426.69724,21.9647147 C426.64406,20.8724747 427.106319,20.11977 427.834479,20.11977 C428.235376,20.11977 428.558548,20.3284001 428.652636,20.6515723 L430.121228,20.6515723 C429.965778,19.6575112 429.028988,18.9620775 427.838569,18.9620775 C426.255435,18.9620775 425.277737,20.1606779 425.277737,22.0956198 C425.277737,22.9628665 425.486367,23.699208 425.883174,24.2228287 C426.308615,24.8446282 426.995867,25.1800727 427.834479,25.1800727 Z M427.822206,24.0264709 C427.298586,24.0264709 426.893598,23.6173923 426.893598,23.0937717 C426.893598,22.5783326 427.294495,22.1815263 427.822206,22.1815263 C428.354009,22.1815263 428.754906,22.5783326 428.754906,23.1019532 C428.754906,23.6214831 428.345827,24.0264709 427.822206,24.0264709 Z M421.962074,25.1841635 C423.385668,25.1841635 424.326549,24.312826 424.326549,23.0365007 C424.326549,21.8869897 423.524755,21.0565601 422.403879,21.0565601 C421.798443,21.0565601 421.381183,21.2938257 421.152099,21.6619965 L421.074374,21.6619965 L421.184825,20.2915831 L423.954287,20.2915831 L423.954287,19.1216182 L420.027132,19.1216182 L419.748959,22.5783326 L421.070283,22.5783326 C421.258459,22.2797052 421.552996,22.091529 421.970256,22.091529 C422.518421,22.091529 422.911137,22.4842445 422.911137,23.0733177 C422.911137,23.6501186 422.522512,24.0264709 421.974347,24.0264709 C421.479361,24.0264709 421.086646,23.7401159 421.017103,23.3064926 L419.654871,23.3064926 C419.675325,24.3782786 420.591661,25.1841635 421.962074,25.1841635 Z" id="Combined-Shape"></path>
        </g>
    </g>
</svg>